<?xml version="1.0" encoding="UTF-8"?>
<!DOCTYPE svg PUBLIC "-//W3C//DTD SVG 1.1//EN" "http://www.w3.org/Graphics/SVG/1.1/DTD/svg11.dtd">
<svg xmlns="http://www.w3.org/2000/svg" version="1.1" width="512px" height="512px" style="shape-rendering:geometricPrecision; text-rendering:geometricPrecision; image-rendering:optimizeQuality; fill-rule:evenodd; clip-rule:evenodd" xmlns:xlink="http://www.w3.org/1999/xlink">
<g><path style="opacity:0.98" fill="#000000" d="M 511.5,297.5 C 511.5,301.5 511.5,305.5 511.5,309.5C 505.405,321.478 496.072,324.644 483.5,319C 407.653,242.986 331.653,167.153 255.5,91.5C 179.347,167.153 103.347,242.986 27.5,319C 14.9281,324.644 5.59479,321.478 -0.5,309.5C -0.5,305.5 -0.5,301.5 -0.5,297.5C 80.9104,214.589 162.91,132.089 245.5,50C 252.167,46.6667 258.833,46.6667 265.5,50C 294,78.5 322.5,107 351,135.5C 351.333,120.167 351.667,104.833 352,89.5C 355.383,79.055 362.55,74.555 373.5,76C 380.262,77.7633 384.762,81.9299 387,88.5C 387.333,116.5 387.667,144.5 388,172.5C 429.757,213.756 470.924,255.423 511.5,297.5 Z"/></g>
<g><path style="opacity:0.99" fill="#000000" d="M 250.5,118.5 C 257.732,117.413 264.066,119.246 269.5,124C 333.028,187.194 396.194,250.694 459,314.5C 459.667,316.5 460.333,318.5 461,320.5C 461.667,356.833 461.667,393.167 461,429.5C 456.269,448.231 444.436,459.398 425.5,463C 390.167,463.667 354.833,463.667 319.5,463C 301.51,459.009 290.01,448.176 285,430.5C 283.728,402.864 283.062,375.197 283,347.5C 279.399,333.106 270.232,324.773 255.5,322.5C 242.703,324.46 233.87,331.46 229,343.5C 227.983,372.486 226.983,401.486 226,430.5C 220.99,448.176 209.49,459.009 191.5,463C 156.167,463.667 120.833,463.667 85.5,463C 66.1188,459.286 54.2855,447.786 50,428.5C 49.3333,392.5 49.3333,356.5 50,320.5C 50.7246,318.051 51.7246,315.717 53,313.5C 115.472,250.027 178.306,186.861 241.5,124C 244.263,121.626 247.263,119.792 250.5,118.5 Z"/></g>
</svg>
